<svg xmlns="http://www.w3.org/2000/svg" viewBox="0 0 300 300" xml:space="preserve"><path fill="#FFF" stroke="#323A47" stroke-width="5" stroke-miterlimit="10" d="M235.996 161.501c-11.398 1.424-20.658.356-20.658.356V92.065h14.025c9.269 0 18.211 3.86 24.258 10.885 4.258 4.944 7.664 11.904 7.664 21.519-.001 23.5-12.11 32.759-25.289 37.032m60.037-48.995c-4.091-21.607-15.723-35.068-27.644-43.391-12.327-8.607-27.094-13.03-42.13-13.03H12.873c-7.423 0-10.267 7.247-10.294 10.877-.004.474.013 2.368.013 2.368s-.35 94.404.313 144.827c2.014 29.768 31.838 29.757 31.838 29.757s97.376-.285 144.077-.575c2.19-.013 4.379-.25 6.503-.782 26.589-6.652 29.34-31.353 29.056-45.124 53.446 2.971 91.154-34.742 81.654-84.927"/><path fill="#FF5E5B" d="M107.103 204.766c2.322 1.169 3.804-.283 3.804-.283s33.962-30.998 49.263-48.849c13.608-15.971 14.496-42.883-8.876-52.939-23.369-10.057-42.597 11.829-42.597 11.829-16.675-18.339-41.911-17.41-53.584-4.999-11.672 12.411-7.596 33.714 1.112 45.569 8.174 11.129 44.103 43.152 49.547 48.567.001.001.397.416 1.331 1.105"/></svg>