<svg xmlns="http://www.w3.org/2000/svg" viewBox="0 0 512 512" xml:space="preserve"><path d="M0 346.1c0 14 11.4 25.4 25.4 25.4h264.4v-50.7H25.4c-14-.1-25.4 11.3-25.4 25.3zm34.1-75.5V81.2h306.1l.2 140v-.1s6.4-26.3 33.9-35.2V79.5c0-17.7-14.5-32.2-32.4-32.2H32.4C14.6 47.4 0 61.8 0 79.5v192.7c0 17.7 14.6 32.2 32.4 32.2h256.7v-2.6c0-9.4 5.5-22.9 32.2-31.2H34.1zM465 320.8v-14.2h-.1c-.6-10.3-25.5-18.9-59.1-21.3-.1 6.7-2.6 11.2-3.7 13.1 22.9 2 39.6 8 39.6 15.1 0 8.7-24.9 15.8-55.7 15.8-30.7 0-55.7-7.1-55.7-15.8 0-8.3 22.7-15.1 51.5-15.8.1-.1.3-9-5.3-13.1-38.7 1.3-68.8 10.6-69.4 21.9h-.1v79c0 43.6 35.4 79 79 79 33.5 0 62.1-20.9 73.6-50.4 1.8.2 3.6.6 5.4.6 25.9 0 47-21.1 47-47 0-25.8-21.1-46.9-47-46.9zm0 67.8h-.1c0-1 .1-2 .1-3V347c11.5 0 20.8 9.3 20.8 20.8s-9.3 20.8-20.8 20.8z" fill="#4e5b31"/><path d="M354.6 242c1.7 26.7 34.4 28.8 34.4 45.7 0 10.4-4.7 16-5.8 17.7-.4.6-1.1 1.9.1 3.1.9.9 2.3.9 3.2 0 3.1-3 10.7-10.5 10.7-22.7 0-19.2-25.5-27.4-25.5-42.7 0-19.7 23.8-9.8 24.5-9.7 7.1 1.6 14.1-2.8 15.8-9.8 1.6-7.1-1.9-11.8-9.8-15.8-9.1-4.6-49.9-2.1-47.6 34.2z" fill="#4e5b31"/></svg>